#!OML:ASF H:\MichaelJackson\Top Level 1\Subject 1\Session 1\male.ASF
:FULLY-SPECIFIED
:DEGREES
1056
root -12.5966 16.4427 11.8754 -171.155 -230.019 -183.058
lowerback 0.621851 -0.444883 -6.55719
upperback -1.96677 -0.666363 2.10979
thorax -2.28882 -0.186914 5.89793
lowerneck 1.31958 -16.0921 -9.97346
upperneck 5.93943 -22.1753 10.5873
head 3.8509 -11.0042 3.62862
rclavicle -9.51309e-014 2.24627e-014
rhumerus -45.613 -5.72159 -63.9144
rradius 32.8032
rwrist 13.9607
rhand -23.161 -14.5748
rfingers 7.12502
rthumb 3.28762 -44.5292
lclavicle -9.51309e-014 2.24627e-014
lhumerus 0.109987 24.873 8.75911
lradius 103.469
lwrist 63.9801
lhand -34.4078 13.7922
lfingers 7.12502
lthumb -7.57317 43.6366
rfemur -24.6724 -12.599 9.68375
rtibia 63.5095
rfoot -8.65056 -41.2491
rtoes 59.8021
lfemur -35.2358 -4.98748 -18.5076
ltibia 52.0626
lfoot -27.2259 1.34668
ltoes 6.05696
1057
root -12.5538 16.4572 11.8701 -171.237 -229.665 -182.817
lowerback 0.826083 -0.308063 -6.58345
upperback -1.91496 -0.498881 2.01346
thorax -2.37596 -0.10205 5.80937
lowerneck 1.33596 -16.0326 -9.80693
upperneck 5.91775 -22.0854 10.4891
head 3.80335 -10.96 3.59425
rclavicle 1.9456e-014 4.17448e-015
rhumerus -45.8918 -5.95929 -63.7876
rradius 32.9469
rwrist 13.9869
rhand -23.1595 -14.588
rfingers 7.12502
rthumb 3.28907 -44.5424
lclavicle 1.9456e-014 4.17448e-015
lhumerus 0.475518 25.1682 8.59911
lradius 101.879
lwrist 64.1135
lhand -34.3371 13.3638
lfingers 7.12502
lthumb -7.50494 43.2106
rfemur -26.3197 -12.9724 9.75071
rtibia 65.2025
rfoot -6.59499 -40.4656
rtoes 58.8889
lfemur -34.5854 -4.80355 -18.862
ltibia 51.6221
lfoot -27.0636 1.33152
ltoes 6.41665
1058
root -12.5047 16.48 11.8718 -171.287 -229.342 -182.454
lowerback 0.992939 -0.264029 -6.76875
upperback -1.81624 -0.454701 1.97627
thorax -2.37396 -0.080232 5.87572
lowerneck 1.16005 -15.8982 -9.84266
upperneck 6.04033 -21.8907 10.3661
head 3.83871 -10.8597 3.56299
rclavicle -3.32964e-014 -8.64713e-015
rhumerus -45.9821 -5.82469 -63.7602
rradius 33.0305
rwrist 13.9323
rhand -23.3134 -14.8521
rfingers 7.12502
rthumb 3.14049 -44.8088
lclavicle -3.32964e-014 -8.64713e-015
lhumerus 0.617259 25.4711 8.40361
lradius 100.273
lwrist 64.2596
lhand -34.1936 12.8249
lfingers 7.12502
lthumb -7.36647 42.6767
rfemur -27.843 -13.3304 9.80736
rtibia 66.8078
rfoot -4.92129 -39.7569
rtoes 58.1957
lfemur -33.8086 -4.59356 -19.3343
ltibia 51.1714
lfoot -26.9584 1.34283
ltoes 6.50351
1059
root -12.4548 16.5025 11.8754 -171.274 -229.06 -182.096
lowerback 1.06736 -0.228184 -6.93203
upperback -1.75056 -0.415787 1.92222
thorax -2.35361 -0.0613134 5.91111
lowerneck 1.1387 -15.7773 -9.69814
upperneck 6.12526 -21.7114 10.128
head 3.80775 -10.7723 3.49324
rclavicle -2.19657e-014 -1.55052e-014
rhumerus -46.1746 -5.8514 -63.685
rradius 33.1729
rwrist 13.8936
rhand -23.3436 -14.8999
rfingers 7.12502
rthumb 3.11126 -44.857
lclavicle -2.19657e-014 -1.55052e-014
lhumerus 0.773126 25.6677 8.14516
lradius 98.7494
lwrist 64.3401
lhand -34.1162 12.4263
lfingers 7.12502
lthumb -7.29172 42.2807
rfemur -29.4511 -13.9021 9.98
rtibia 68.348
rfoot -3.38206 -39.2113
rtoes 57.768
lfemur -33.1061 -4.50161 -19.772
ltibia 50.7346
lfoot -26.8429 1.35925
ltoes 6.94657
1060
root -12.4116 16.5212 11.8707 -171.316 -228.748 -181.811
lowerback 1.27839 -0.194252 -7.04519
upperback -1.70711 -0.387757 1.91075
thorax -2.43182 -0.0437697 5.96443
lowerneck 1.01016 -15.6029 -9.72236
upperneck 6.31161 -21.4645 9.94597
head 3.84278 -10.6484 3.4508
rclavicle -1.61761e-013 1.98785e-016
rhumerus -46.3066 -5.626 -63.694
rradius 33.3261
rwrist 13.7388
rhand -23.3696 -15.0492
rfingers 7.12502
rthumb 3.08621 -45.0066
lclavicle -1.61761e-013 1.98785e-016
lhumerus 0.920057 25.8829 7.96953
lradius 97.1867
lwrist 64.3464
lhand -33.7923 11.8127
lfingers 7.12502
lthumb -6.97909 41.6776
rfemur -31.171 -14.4054 10.3384
rtibia 69.8353
rfoot -2.10737 -38.8733
rtoes 57.4554
lfemur -32.4829 -4.23622 -20.1727
ltibia 50.3062
lfoot -26.703 1.24051
ltoes 7.29597
1061
root -12.3702 16.5383 11.8689 -171.221 -228.467 -181.39
lowerback 1.49629 -0.143034 -7.27942
upperback -1.71023 -0.342738 1.86417
thorax -2.56544 -0.011936 6.0495
lowerneck 1.14498 -15.4285 -9.63599
upperneck 6.22542 -21.2175 9.7872
head 3.74453 -10.5347 3.43559
rclavicle 1.78285e-014 1.39149e-015
rhumerus -46.5327 -5.49793 -63.66
rradius 33.4732
rwrist 13.7127
rhand -23.5693 -15.1676
rfingers 7.12502
rthumb 2.89327 -45.1277
lclavicle 1.78285e-014 1.39149e-015
lhumerus 1.11048 25.9148 7.78648
lradius 95.7335
lwrist 63.9322
lhand -33.7927 11.5492
lfingers 7.12502
lthumb -6.97948 41.4141
rfemur -32.9161 -15.0199 10.6979
rtibia 71.2645
rfoot -1.34075 -38.6211
rtoes 57.296
lfemur -31.8979 -4.06542 -20.6521
ltibia 49.8871
lfoot -26.5609 1.22586
ltoes 7.53846
1062
root -12.3287 16.5547 11.8685 -171.25 -228.191 -181.109
lowerback 1.66469 -0.0763949 -7.39129
upperback -1.67285 -0.270307 1.80468
thorax -2.63345 0.0272629 6.04907
lowerneck 1.14811 -15.3591 -9.39667
upperneck 6.28363 -21.0977 9.42836
head 3.68634 -10.4792 3.31786
rclavicle 2.62085e-014 -6.31141e-015
rhumerus -46.7986 -5.56222 -63.6116
rradius 33.6568
rwrist 13.73
rhand -23.5122 -15.0744
rfingers 7.12502
rthumb 2.94847 -45.0338
lclavicle 2.62085e-014 -6.31141e-015
lhumerus 1.44463 26.0288 7.65891
lradius 94.2132
lwrist 63.3645
lhand -33.5391 11.4499
lfingers 7.12502
lthumb -6.73462 41.3228
rfemur -34.6365 -15.5909 11.2369
rtibia 72.6196
rfoot -0.919222 -38.425
rtoes 57.207
lfemur -31.3094 -3.83344 -21.0245
ltibia 49.4923
lfoot -26.4248 1.11435
ltoes 7.89439
1063
root -12.2851 16.5721 11.8664 -171.158 -227.997 -180.765
lowerback 1.8129 -0.101246 -7.56398
upperback -1.672 -0.319596 1.83225
thorax -2.70859 0.00933443 6.17995
lowerneck 1.06996 -15.2576 -9.48606
upperneck 6.42815 -20.9483 9.23675
head 3.71706 -10.4076 3.27654
rclavicle 1.3977e-015 -7.0817e-015
rhumerus -46.9514 -5.39418 -63.5132
rradius 33.8532
rwrist 13.8059
rhand -23.354 -15.0179
rfingers 7.12502
rthumb 3.10123 -44.9751
lclavicle 1.3977e-015 -7.0817e-015
lhumerus 1.46771 26.1246 7.47091
lradius 92.7973
lwrist 62.8438
lhand -33.3918 11.2985
lfingers 7.12502
lthumb -6.59242 41.1758
rfemur -36.4072 -16.1769 11.8208
rtibia 73.8939
rfoot -0.459496 -38.2373
rtoes 56.8221
lfemur -30.8042 -3.56862 -21.4524
ltibia 49.0781
lfoot -26.3727 0.69885
ltoes 9.31394
1064
root -12.2416 16.5897 11.8689 -171.363 -227.817 -180.648
lowerback 2.04422 -0.0513694 -7.51113
upperback -1.64198 -0.270221 1.77342
thorax -2.81609 0.0357063 6.08726
lowerneck 0.966282 -15.1099 -9.42556
upperneck 6.60796 -20.7448 9.12387
head 3.75102 -10.303 3.24043
rclavicle 6.80527e-015 9.61621e-015
rhumerus -47.2604 -5.32929 -63.5628
rradius 34.0785
rwrist 13.5524
rhand -23.1504 -14.8765
rfingers 7.12502
rthumb 3.29788 -44.8308
lclavicle 6.80527e-015 9.61621e-015
lhumerus 1.76856 26.0893 7.27826
lradius 91.3861
lwrist 62.1746
lhand -32.8947 10.8718
lfingers 7.12502
lthumb -6.11255 40.7636
rfemur -37.9567 -16.6626 12.5887
rtibia 75.0647
rfoot -0.34715 -37.9739
rtoes 56.809
lfemur -30.137 -3.32106 -21.6971
ltibia 48.6698
lfoot -26.2929 0.468678
ltoes 9.97754
